<?xml version="1.0" encoding="utf-8" ?><svg xmlns="http://www.w3.org/2000/svg" xmlns:xlink="http://www.w3.org/1999/xlink" width="852" height="250" viewBox="108 360 852 250"><metadata><c2pa:manifest xmlns:c2pa="http://c2pa.org/manifest">AAAO+Wp1bWIAAAAeanVtZGMycGEAEQAQgAAAqgA4m3EDYzJwYQAAAA7TanVtYgAAAEdqdW1kYzJtYQARABCAAACqADibcQN1cm46YzJwYTplOTkwMWE4Ni01NDBiLTRhZDQtYWMxNC05YTY3NmNhMmUzNWUAAAAEEmp1bWIAAAApanVtZGMyYXMAEQAQgAAAqgA4m3EDYzJwYS5hc3NlcnRpb25zAAAAAMxqdW1iAAAARGp1bWRjYm9yABEAEIAAAKoAOJtxE2MycGEuaW5ncmVkaWVudC52MwAAAAAYYzJzaPgumVUn7Eg7RCqq5j4NgtsAAACAY2JvcqRscmVsYXRpb25zaGlwaHBhcmVudE9maGRjOnRpdGxlZnNvdXJjZWlkYzpmb3JtYXRtaW1hZ2Uvc3ZnK3htbGppbnN0YW5jZUlEeCx4bXA6aWlkOmUxNjdkMTIzLWZhOGEtNDJmOS04NThlLTE4OGZhYWNiZmYxMAAAAe5qdW1iAAAAQWp1bWRjYm9yABEAEIAAAKoAOJtxE2MycGEuYWN0aW9ucy52MgAAAAAYYzJzaL/0J8+TbOo41JyNF1QyCE0AAAGlY2JvcqFnYWN0aW9uc4KiZmFjdGlvbmtjMnBhLm9wZW5lZGpwYXJhbWV0ZXJzoWtpbmdyZWRpZW50c4GiY3VybHgtc2VsZiNqdW1iZj1jMnBhLmFzc2VydGlvbnMvYzJwYS5pbmdyZWRpZW50LnYzZGhhc2hYIBoRvdAs7dzx2jMuuT+VBHRVvQOWDGel8voh/c3Y0pDdpGZhY3Rpb25sYzJwYS5jcmVhdGVkanBhcmFtZXRlcnOha2luZ3JlZGllbnRzgaJjdXJseC1zZWxmI2p1bWJmPWMycGEuYXNzZXJ0aW9ucy9jMnBhLmluZ3JlZGllbnQudjNkaGFzaFggGhG90Czt3PHaMy65P5UEdFW9A5YMZ6Xy+iH9zdjSkN1xZGlnaXRhbFNvdXJjZVR5cGV4QWh0dHA6Ly9jdi5pcHRjLm9yZy9uZXdzY29kZXMvZGlnaXRhbHNvdXJjZXR5cGUvY29tcG9zaXRlU3ludGhldGlja2Rlc2NyaXB0aW9ueB9Db21wb3NlZCBpbiB0aGUgUmVjcmFmdCBlZGl0b3IuAAABJ2p1bWIAAABAanVtZGNib3IAEQAQgAAAqgA4m3ETYzJwYS5oYXNoLmRhdGEAAAAAGGMyc2jHrK9YgndMuwnl1+j89asXAAAA32Nib3KlamV4Y2x1c2lvbnOBomVzdGFydBitZmxlbmd0aBkUUmRuYW1lbmp1bWJmIG1hbmlmZXN0Y2FsZ2ZzaGEyNTZkaGFzaFggvSVaWdiDshMwqz3mhmYicJMtBWyakBzZhiUu32/64jNjcGFkWGsAAAAAAAAAAAAAAAAAAAAAAAAAAAAAAAAAAAAAAAAAAAAAAAAAAAAAAAAAAAAAAAAAAAAAAAAAAAAAAAAAAAAAAAAAAAAAAAAAAAAAAAAAAAAAAAAAAAAAAAAAAAAAAAAAAAAAAAAAAAAAAAAAApZqdW1iAAAAJ2p1bWRjMmNsABEAEIAAAKoAOJtxA2MycGEuY2xhaW0udjIAAAACZ2Nib3Knamluc3RhbmNlSUR4LHhtcDppaWQ6YTE4YTlmODItYTM0MC00ODI4LWJjMDEtNDliMmRlMTlkNThidGNsYWltX2dlbmVyYXRvcl9pbmZvo2RuYW1lanJlY3JhZnQuYWlndmVyc2lvbngoODFjZTgyZTJjNWMzY2JmYmU4YzZmYmUxNzlkNWY4ZDkxYzQwOWNlMXdvcmcuY29udGVudGF1dGguYzJwYV9yc2YwLjkwLjdpc2lnbmF0dXJleE1zZWxmI2p1bWJmPS9jMnBhL3VybjpjMnBhOmU5OTAxYTg2LTU0MGItNGFkNC1hYzE0LTlhNjc2Y2EyZTM1ZS9jMnBhLnNpZ25hdHVyZXJjcmVhdGVkX2Fzc2VydGlvbnOComN1cmx4KnNlbGYjanVtYmY9YzJwYS5hc3NlcnRpb25zL2MycGEuYWN0aW9ucy52MmRoYXNoWCBrOuIV/18pdvzoON64HkS0HbF6Isf/KcdrUMKBDwEZ16JjdXJseClzZWxmI2p1bWJmPWMycGEuYXNzZXJ0aW9ucy9jMnBhLmhhc2guZGF0YWRoYXNoWCAFbC32blsI1h81sFFKfDq0+9qeIInY+Hv6Tf6iJxAOO3NnYXRoZXJlZF9hc3NlcnRpb25zgaJjdXJseC1zZWxmI2p1bWJmPWMycGEuYXNzZXJ0aW9ucy9jMnBhLmluZ3JlZGllbnQudjNkaGFzaFggGhG90Czt3PHaMy65P5UEdFW9A5YMZ6Xy+iH9zdjSkN1oZGM6dGl0bGVtUmVjcmFmdCBJbWFnZWNhbGdmc2hhMjU2AAAH3Gp1bWIAAAAoanVtZGMyY3MAEQAQgAAAqgA4m3EDYzJwYS5zaWduYXR1cmUAAAAHrGNib3LShFkDsKIBJhghglkB5zCCAeMwggGJoAMCAQICCQC33lpjQ1FuejAKBggqhkjOPQQDAjBAMR8wHQYDVQQDDBZSZWNyYWZ0IFN0YWdpbmcgRGV2IENBMRAwDgYDVQQKDAdSZWNyYWZ0MQswCQYDVQQGEwJVUzAeFw0yNjA2MTIxOTQzNTBaFw0yNzA2MTIxOTQzNTBaMDcxCzAJBgNVBAYTAlVTMRMwEQYDVQQKEwpSZWNyYWZ0IEFJMRMwEQYDVQQDEwpyZWNyYWZ0LmFpMFkwEwYHKoZIzj0CAQYIKoZIzj0DAQcDQgAESmk1WwArIPw3hty3jsWHSA/1QOhBRu9xOjpJ2/iiIghScoEVM+Lnjds/7dqmG+giFL0vEb4DoogpX6KrGLcPNaN1MHMwDAYDVR0TAQH/BAIwADAOBgNVHQ8BAf8EBAMCBsAwEwYDVR0lBAwwCgYIKwYBBQUHAwQwHQYDVR0OBBYEFC8x6QXp/eki9cuCDx2vDJDLIV39MB8GA1UdIwQYMBaAFAILKjgayqqXSv/5v5MWaO2UeHm3MAoGCCqGSM49BAMCA0gAMEUCIFPISltGl775PEkIFRTZGsevWJvWnvBrE9kWU0MPgedQAiEAtA+AZBKEQ+DdK9mUZDctB2Wlt1iAsv0GRjfeYpReMsxZAb0wggG5MIIBX6ADAgECAgkAnPloO0+gE28wCgYIKoZIzj0EAwIwQDEfMB0GA1UEAwwWUmVjcmFmdCBTdGFnaW5nIERldiBDQTEQMA4GA1UECgwHUmVjcmFmdDELMAkGA1UEBhMCVVMwHhcNMjYwNjEyMTk0MDE2WhcNMjgwNjExMTk0MDE2WjBAMR8wHQYDVQQDDBZSZWNyYWZ0IFN0YWdpbmcgRGV2IENBMRAwDgYDVQQKDAdSZWNyYWZ0MQswCQYDVQQGEwJVUzBZMBMGByqGSM49AgEGCCqGSM49AwEHA0IABEPSEAZXFWymij2K0EnzoS/9NLO8VAwu0YpyLizvyNZPfcvcoeqFhfZD8Wj/rcdb9T3ji98q1arie99B9GRog8qjQjBAMA8GA1UdEwEB/wQFMAMBAf8wDgYDVR0PAQH/BAQDAgGGMB0GA1UdDgQWBBQCCyo4Gsqql0r/+b+TFmjtlHh5tzAKBggqhkjOPQQDAgNIADBFAiBUMDSJi5WA3kIY4BfmYqk24HLs0qpjicN0NpUP4bvNxQIhAPTvHC5v8X6FS6geI7XW7h84t1i/qdkTfg0RpMKWLMFboWNwYWRZA6QAAAAAAAAAAAAAAAAAAAAAAAAAAAAAAAAAAAAAAAAAAAAAAAAAAAAAAAAAAAAAAAAAAAAAAAAAAAAAAAAAAAAAAAAAAAAAAAAAAAAAAAAAAAAAAAAAAAAAAAAAAAAAAAAAAAAAAAAAAAAAAAAAAAAAAAAAAAAAAAAAAAAAAAAAAAAAAAAAAAAAAAAAAAAAAAAAAAAAAAAAAAAAAAAAAAAAAAAAAAAAAAAAAAAAAAAAAAAAAAAAAAAAAAAAAAAAAAAAAAAAAAAAAAAAAAAAAAAAAAAAAAAAAAAAAAAAAAAAAAAAAAAAAAAAAAAAAAAAAAAAAAAAAAAAAAAAAAAAAAAAAAAAAAAAAAAAAAAAAAAAAAAAAAAAAAAAAAAAAAAAAAAAAAAAAAAAAAAAAAAAAAAAAAAAAAAAAAAAAAAAAAAAAAAAAAAAAAAAAAAAAAAAAAAAAAAAAAAAAAAAAAAAAAAAAAAAAAAAAAAAAAAAAAAAAAAAAAAAAAAAAAAAAAAAAAAAAAAAAAAAAAAAAAAAAAAAAAAAAAAAAAAAAAAAAAAAAAAAAAAAAAAAAAAAAAAAAAAAAAAAAAAAAAAAAAAAAAAAAAAAAAAAAAAAAAAAAAAAAAAAAAAAAAAAAAAAAAAAAAAAAAAAAAAAAAAAAAAAAAAAAAAAAAAAAAAAAAAAAAAAAAAAAAAAAAAAAAAAAAAAAAAAAAAAAAAAAAAAAAAAAAAAAAAAAAAAAAAAAAAAAAAAAAAAAAAAAAAAAAAAAAAAAAAAAAAAAAAAAAAAAAAAAAAAAAAAAAAAAAAAAAAAAAAAAAAAAAAAAAAAAAAAAAAAAAAAAAAAAAAAAAAAAAAAAAAAAAAAAAAAAAAAAAAAAAAAAAAAAAAAAAAAAAAAAAAAAAAAAAAAAAAAAAAAAAAAAAAAAAAAAAAAAAAAAAAAAAAAAAAAAAAAAAAAAAAAAAAAAAAAAAAAAAAAAAAAAAAAAAAAAAAAAAAAAAAAAAAAAAAAAAAAAAAAAAAAAAAAAAAAAAAAAAAAAAAAAAAAAAAAAAAAAAAAAAAAAAAAAAAAAAAAAAAAAAAAAAAAAAAAAAAAAAAAAAAAAAAAAAAAAAAAAAAAAAAAAAAAAAAAAAAAAAAAAAAAAAAAAAAAAAAAAAAAAAAAAAAAAAAAAAAAAAAAAAAAAAAAAAAAAAAAAAAAAAAAAAAAAAAAAAAAAAAAAAAAAAAAAAAAAAAAAAAAAAAAAAAAAAAAAPZYQCtif8TvprJV56GHsNqECHkcNHfMHtqnXKpmklRo2xwSlcom69S6v2ej/9QC1JHe1rHi7tLPag4kEzD/b9d9wQE=</c2pa:manifest></metadata><path fill="#284C27" d="M155.587 572.925C152.993 572.711 150.357 572.7 147.795 572.688C136.348 572.638 126.372 572.594 128.222 554.572C131.002 527.504 134.77 500.642 138.022 473.591C138.118 472.794 138.21 472.001 138.301 471.214C139.881 457.569 141.236 445.872 159.433 447.338C170.76 448.404 179.031 461.803 186.062 469.794C193.51 478.261 201.249 487.617 208.02 496.585C213.513 505.044 217.231 512.712 222.227 520.883L222.403 521.23L222.405 521.233C225.611 527.565 230.267 536.762 224.231 542.748C221.376 545.717 215.86 544.972 212.997 542.359C206.082 536.045 199.782 528.166 193.703 521.07C184.387 510.13 174.956 499.287 165.413 488.544C164.786 492.22 164.481 497.583 164.073 501.428L161.352 525.035C159.545 540.103 156.558 558.122 155.587 572.925Z"/><path fill="#284C27" d="M382.601 519.671C385.795 513.57 390.015 507.708 393.579 501.778C398.952 492.838 405.5 479.625 412.311 472.047C415.571 468.418 420.607 464.588 425.696 464.503C427.653 464.471 430.109 465.364 431.27 467.042C434.304 471.427 433.644 557.117 431.769 560.826C431.125 562.102 429.318 562.78 428.017 563.139C425.563 563.815 419.634 564.377 417.551 562.465C413.42 558.67 413.78 537.828 413.957 527.617C413.983 526.108 414.005 524.83 414.008 523.875C414.104 516.46 414.274 509.046 414.517 501.634C406.664 511.09 395.354 536.39 385.931 541.896C384.232 542.889 382.236 543.405 380.301 542.847C371.883 540.421 354.934 509.418 349.676 500.753C350.166 514.676 351.191 546.627 348.345 561.464C347.712 564.76 337.23 564.278 333.39 561.834C330.384 557.317 330.581 477.043 332.342 468.269C334.03 465.787 335.723 465.814 338.697 465.209C341.824 465.019 346.263 465.322 348.472 467.779C355.027 475.071 360.149 484.771 365.295 493.152C370.769 502.18 376.541 511.025 382.601 519.671Z"/><path fill="#E1710F" d="M208.02 496.585C215.27 487.148 223.488 478.106 231.306 469.109C236.541 463.084 241.785 456.175 248.021 451.225C256.528 444.473 274.515 444.706 277.238 457.66C279.502 468.432 280.187 479.615 281.681 490.526C284.099 510.851 286.648 531.173 288.878 551.519C289.324 555.587 290.044 564.376 287.408 567.625C282.5 573.678 272.234 573.375 264.437 573.145C263.546 573.119 262.688 573.094 261.873 573.079C258.746 558.369 257.247 537.33 255.413 522.003C254.54 514.714 251.888 495.055 251.674 488.286C242.686 498.209 231.646 512.164 222.227 520.883C217.231 512.712 213.513 505.044 208.02 496.585Z"/><path fill="#284C27" d="M557.719 491.636C574.645 490.382 589.242 496.305 596.207 512.768C600.198 522.203 600.453 533.137 596.484 542.637C592.962 551.298 586.128 558.196 577.5 561.799C568.981 565.266 559.401 565.585 550.825 562.059C548.139 560.955 546.096 559.25 543.788 558.295L543.477 559.375C543.449 561.279 543.518 563.42 543.591 565.674L543.591 565.677C543.826 573.007 544.1 581.541 541.229 587.082C540.228 589.013 538.611 590.637 536.459 591.196C533.85 591.874 530.114 591.051 527.913 589.547C526.675 588.7 526.084 587.12 525.778 585.719C524.277 578.864 524.81 531.915 526.093 524.058C527.115 517.796 528.974 511.451 532.533 506.134C538.539 497.163 547.487 493.608 557.719 491.636ZM562.25 548.505C573.41 548.47 582.461 539.454 582.541 528.294C582.62 517.134 573.699 507.991 562.54 507.796C555.219 507.669 548.393 511.483 544.665 517.786C540.937 524.088 540.881 531.907 544.519 538.262C548.157 544.617 554.928 548.528 562.25 548.505Z"/><path fill="#284C27" d="M473.528 491.675C485.612 489.698 500.48 494.815 507.291 505.234C515.504 517.799 515.672 533.875 514.964 548.401C514.828 549.195 514.818 550.53 514.807 552.075C514.776 556.243 514.734 561.934 512.175 562.611C505.362 564.415 499.717 564.405 496.877 557.818C493.107 560.23 491.491 561.102 487.395 562.962C452.386 573.733 428.796 534.026 448.709 505.866C454.904 497.105 463.155 493.32 473.528 491.675ZM480.757 548.633C491.928 547.321 499.929 537.213 498.639 526.039C497.349 514.865 487.256 506.845 476.08 508.112C464.873 509.384 456.825 519.511 458.119 530.716C459.412 541.92 469.554 549.948 480.757 548.633Z"/><path fill="#284C27" d="M822.772 491.767C842.874 488.266 861.999 501.754 865.45 521.865C868.901 541.976 855.367 561.068 835.247 564.469C815.198 567.858 796.187 554.381 792.748 534.34C789.309 514.299 802.739 495.255 822.772 491.767ZM832.253 548.287C843.351 546.548 850.941 536.148 849.212 525.049C847.484 513.95 837.09 506.35 825.99 508.068C814.874 509.788 807.262 520.199 808.993 531.312C810.724 542.426 821.141 550.028 832.253 548.287Z"/><path fill="#284C27" d="M668.209 491.678C689.42 489.121 705.61 502.392 708.863 523.424C709.395 524.829 708.738 531.051 707.086 531.745C695.811 536.485 672.9 535.373 658.84 534.691L658.83 534.691C657.296 534.616 655.868 534.547 654.572 534.491C659.015 550.104 672.665 553.847 685.772 545.553C688.532 543.806 691.103 542.023 694.388 541.874C716.641 547.339 691.294 562.267 680.736 564.244C670.526 566.212 659.952 564.013 651.372 558.138C643.678 552.878 638.437 544.731 636.841 535.549C632.989 513.505 646.436 495.528 668.209 491.678ZM654.246 521.589C661.436 521.476 668.627 521.459 675.817 521.538L691.592 521.57C687.317 511.986 682.001 505.431 670.514 506.581C660.73 508.985 657.99 512.711 654.246 521.589Z"/><path fill="#284C27" d="M879.761 492.108C892.614 491.841 892.837 499.801 892.359 510.286C892.32 511.064 892.28 511.842 892.24 512.62L892.238 512.656C891.866 519.934 891.494 527.205 891.972 534.44C891.927 544.663 899.959 550.869 910.031 548.699C924.085 545.672 923.132 532.001 922.191 518.514C921.573 509.655 920.961 500.876 924.611 495.245C926.901 491.713 935.788 491.082 938.031 493.899C941.79 498.62 941.42 508.766 941.17 515.596C941.137 516.505 941.106 517.354 941.087 518.125C940.9 522.92 940.998 527.767 941.096 532.621L941.096 532.626L941.096 532.648C941.224 539.01 941.352 545.386 940.839 551.677C940.587 554.613 940.225 562.607 936.418 563.213C928.597 564.456 924.474 564.953 921.742 557.314C919.971 558.872 915.638 562.312 913.201 562.919C872.35 573.092 873.108 536.9 873.702 508.589C873.736 506.967 873.769 505.37 873.794 503.81C873.883 498.272 874.152 494.13 879.761 492.108Z"/><path fill="#284C27" d="M751.307 491.644C784.133 489.957 784.504 515.029 784.11 540.375C784.106 540.634 784.103 540.948 784.1 541.309C784.049 546.648 783.899 562.299 778.978 563.393C764.495 566.613 765.243 553.563 765.85 542.966L765.85 542.965C766.001 540.331 766.143 537.85 766.041 535.807L766.044 535.378L766.044 535.375C766.129 520.992 766.245 501.325 745.278 508.053L744.594 508.278C743.403 508.932 742.166 509.588 741.122 510.464C733.367 516.971 734.137 529.788 734.816 541.096L734.816 541.098C735.093 545.706 735.355 550.064 735.019 553.642C734.703 557.007 733.857 560.894 731.029 563.079C729.08 564.585 726.604 564.726 724.247 564.387C722.783 564.176 719.665 563.652 718.895 562.395C715.172 556.319 715.909 504.459 718.61 496.852C719.182 495.24 720.519 494.334 722.048 493.719C724.81 492.607 730.186 491.782 732.877 493.462C734.817 494.672 735.065 497.518 735.49 499.57C741.105 494.182 743.804 493.008 751.307 491.644Z"/><path fill="#284C27" d="M205.575 384.217C206.918 384.103 208.265 384.034 209.612 384.008C236.77 383.522 253.802 404.884 252.069 430.387C252.051 430.65 252.034 430.924 252.016 431.206L252.016 431.209C251.702 436.159 251.213 443.867 244.577 443.46C238.941 443.115 238.99 433.433 238.919 429.526C239.029 410.54 232.165 400.417 213.269 396.836C195.293 397.193 181.815 404.567 180.214 424.876C180.135 425.875 180.127 427.114 180.118 428.477C180.082 433.921 180.032 441.346 175.43 443.341C171.945 444.851 167.38 439.465 166.984 436.318C164.659 417.653 171.235 398.488 188.618 389.387C194.443 386.322 199.074 385.223 205.575 384.217Z"/><path fill="#284C27" d="M613.779 463.646C614.682 463.582 615.59 463.53 616.496 463.549C619.161 463.603 623.451 463.937 625.125 466.464C626.74 468.9 627.463 532.664 627.295 540.553C627.202 544.917 627.007 558.326 625.351 561.617C624.644 563.021 623.731 563.161 622.394 563.73C621.929 563.744 621.459 563.763 620.986 563.782L620.972 563.783C618.997 563.862 616.969 563.944 615.046 563.693C613.293 563.463 611.09 562.76 610.109 561.174C607.304 556.643 607.87 471.306 609.785 466.35C610.432 464.673 612.241 464.151 613.779 463.646Z"/><path fill="#E1710F" d="M231.776 556.277C238.333 554.68 244.941 558.707 246.529 565.266C248.116 571.826 244.079 578.428 237.517 580.005C230.969 581.579 224.384 577.553 222.801 571.008C221.217 564.463 225.233 557.871 231.776 556.277Z"/></svg>